<svg width="55" height="55" viewBox="0 0 55 55" fill="none" xmlns="http://www.w3.org/2000/svg">
<path fill-rule="evenodd" clip-rule="evenodd" d="M22.0312 13.75C22.0312 10.7297 24.4797 8.28122 27.5 8.28122C30.5203 8.28122 32.9687 10.7297 32.9687 13.75V14.6354H22.0312V13.75ZM19.2187 17.4479V20.625C19.2187 21.4016 19.8483 22.0312 20.625 22.0312C21.4016 22.0312 22.0312 21.4016 22.0312 20.625V17.4479H32.9687V20.625C32.9687 21.4016 33.5983 22.0312 34.375 22.0312C35.1516 22.0312 35.7812 21.4016 35.7812 20.625V17.4479H39.9477L42.023 44.427H12.9768L15.0522 17.4479H19.2187ZM19.2187 14.6354V13.75C19.2187 9.17636 22.9264 5.46872 27.5 5.46872C32.0736 5.46872 35.7812 9.17636 35.7812 13.75V14.6354H41.2499C41.9847 14.6354 42.5957 15.2011 42.652 15.9338L44.9437 45.7254C44.9737 46.116 44.8395 46.5014 44.5734 46.7888C44.3072 47.0762 43.9333 47.2395 43.5416 47.2395H11.4583C11.0666 47.2395 10.6926 47.0762 10.4265 46.7888C10.1603 46.5014 10.0261 46.116 10.0561 45.7254L12.3478 15.9338C12.4042 15.2011 13.0151 14.6354 13.7499 14.6354H19.2187Z" fill="white"/>
</svg>
